# xmcd
#
# Track frame offsets: 
#        150
#        14535
#        29745
#        49734
#        68723
#        86690
#        105472
#        128795
#        147591
#        166167
#        190349
#        205746
#        224509
#
# Disc length: 3138 seconds
#
# Revision: 0
# Processed by: cddbd v1.5.2PL0 Copyright (c) Steve Scherf et al.
# Submitted via: ExactAudioCopy v0.95b1
#
DISCID=c00c400d
DTITLE=Alan Gerber - Queen of Hearts
DYEAR=2009
DGENRE=Blues
TTITLE0=Doodah
TTITLE1=The Animals Are Acing Strange
TTITLE2=Feed Myself
TTITLE3=Engagement Song
TTITLE4=Fashion Reaction
TTITLE5=Tears of Yesterday
TTITLE6=Queen of Hearts
TTITLE7=Dog Dog
TTITLE8=Uncle Boogie
TTITLE9=Waiting For You
TTITLE10=Love Comes
TTITLE11=The Pain and The Wine
TTITLE12=Ballin' The Jack
EXTD=
EXTT0=
EXTT1=
EXTT2=
EXTT3=
EXTT4=
EXTT5=
EXTT6=
EXTT7=
EXTT8=
EXTT9=
EXTT10=
EXTT11=
EXTT12=
PLAYORDER=
